<mxfile host="app.diagrams.net" modified="2024-05-17T04:38:24.457Z" agent="Mozilla/5.0 (Windows NT 10.0; Win64; x64) AppleWebKit/537.36 (KHTML, like Gecko) Chrome/124.0.0.0 Safari/537.36" etag="YpkTTKnKpmXhiUkmBVoq" version="24.4.3" type="github">
  <diagram name="Page-1" id="vua8_JgEmYFBtOHSUDKk">
    <mxGraphModel dx="1221" dy="1795" grid="1" gridSize="10" guides="1" tooltips="1" connect="1" arrows="1" fold="1" page="1" pageScale="1" pageWidth="827" pageHeight="1169" math="0" shadow="0">
      <root>
        <mxCell id="0" />
        <mxCell id="1" parent="0" />
        <mxCell id="R-hOA_cTozhtRgZsZmUz-1" style="edgeStyle=orthogonalEdgeStyle;rounded=0;orthogonalLoop=1;jettySize=auto;html=1;" edge="1" parent="1" source="R-hOA_cTozhtRgZsZmUz-2" target="R-hOA_cTozhtRgZsZmUz-7">
          <mxGeometry relative="1" as="geometry" />
        </mxCell>
        <mxCell id="R-hOA_cTozhtRgZsZmUz-2" value="Два типа-класса, сравнимые между собой" style="shape=parallelogram;perimeter=parallelogramPerimeter;whiteSpace=wrap;html=1;fixedSize=1;" vertex="1" parent="1">
          <mxGeometry x="795" y="-180" width="120" height="60" as="geometry" />
        </mxCell>
        <mxCell id="R-hOA_cTozhtRgZsZmUz-3" style="edgeStyle=orthogonalEdgeStyle;rounded=0;orthogonalLoop=1;jettySize=auto;html=1;entryX=0.5;entryY=0;entryDx=0;entryDy=0;" edge="1" parent="1" source="R-hOA_cTozhtRgZsZmUz-7" target="R-hOA_cTozhtRgZsZmUz-9">
          <mxGeometry relative="1" as="geometry">
            <mxPoint x="1070" y="165" as="targetPoint" />
          </mxGeometry>
        </mxCell>
        <mxCell id="R-hOA_cTozhtRgZsZmUz-4" value="Да" style="edgeLabel;html=1;align=center;verticalAlign=middle;resizable=0;points=[];" vertex="1" connectable="0" parent="R-hOA_cTozhtRgZsZmUz-3">
          <mxGeometry x="-0.4739" y="-4" relative="1" as="geometry">
            <mxPoint as="offset" />
          </mxGeometry>
        </mxCell>
        <mxCell id="R-hOA_cTozhtRgZsZmUz-5" style="edgeStyle=orthogonalEdgeStyle;rounded=0;orthogonalLoop=1;jettySize=auto;html=1;entryX=0.5;entryY=0;entryDx=0;entryDy=0;" edge="1" parent="1" source="R-hOA_cTozhtRgZsZmUz-7" target="R-hOA_cTozhtRgZsZmUz-11">
          <mxGeometry relative="1" as="geometry" />
        </mxCell>
        <mxCell id="R-hOA_cTozhtRgZsZmUz-6" value="Нет" style="edgeLabel;html=1;align=center;verticalAlign=middle;resizable=0;points=[];" vertex="1" connectable="0" parent="R-hOA_cTozhtRgZsZmUz-5">
          <mxGeometry x="-0.0056" y="1" relative="1" as="geometry">
            <mxPoint y="-1" as="offset" />
          </mxGeometry>
        </mxCell>
        <mxCell id="R-hOA_cTozhtRgZsZmUz-7" value="&lt;span style=&quot;font-size: 14px;&quot;&gt;Количество свойств классовых типов совпадает&lt;/span&gt;" style="rhombus;whiteSpace=wrap;html=1;spacingLeft=15;spacingRight=15;" vertex="1" parent="1">
          <mxGeometry x="760" y="-60" width="220" height="150" as="geometry" />
        </mxCell>
        <mxCell id="R-hOA_cTozhtRgZsZmUz-8" style="edgeStyle=orthogonalEdgeStyle;rounded=0;orthogonalLoop=1;jettySize=auto;html=1;" edge="1" parent="1" source="R-hOA_cTozhtRgZsZmUz-9" target="R-hOA_cTozhtRgZsZmUz-12">
          <mxGeometry relative="1" as="geometry" />
        </mxCell>
        <mxCell id="R-hOA_cTozhtRgZsZmUz-9" value="Процесс сравнения полного структурного совпадения между свойствами типов-классов" style="rounded=0;whiteSpace=wrap;html=1;" vertex="1" parent="1">
          <mxGeometry x="982.5" y="160" width="155" height="100" as="geometry" />
        </mxCell>
        <mxCell id="R-hOA_cTozhtRgZsZmUz-10" style="edgeStyle=orthogonalEdgeStyle;rounded=0;orthogonalLoop=1;jettySize=auto;html=1;entryX=0.5;entryY=0;entryDx=0;entryDy=0;" edge="1" parent="1" source="R-hOA_cTozhtRgZsZmUz-11" target="R-hOA_cTozhtRgZsZmUz-12">
          <mxGeometry relative="1" as="geometry" />
        </mxCell>
        <mxCell id="R-hOA_cTozhtRgZsZmUz-11" value="Процесс сравнения двух подобных типов-классов" style="rounded=0;whiteSpace=wrap;html=1;" vertex="1" parent="1">
          <mxGeometry x="630" y="180" width="120" height="60" as="geometry" />
        </mxCell>
        <mxCell id="R-hOA_cTozhtRgZsZmUz-12" value="Возвращаем результат сравнения двух типов-классов" style="rounded=0;whiteSpace=wrap;html=1;" vertex="1" parent="1">
          <mxGeometry x="810" y="380" width="120" height="60" as="geometry" />
        </mxCell>
      </root>
    </mxGraphModel>
  </diagram>
</mxfile>
